# xmcd
#
# Track frame offsets: 
#        150
#        18560
#        34827
#        53578
#        70141
#        85921
#        102152
#        118890
#        135747
#        150180
#        169311
#        186809
#        212670
#        228588
#        247980
#        266050
#        282756
#
# Disc length: 3968 seconds
#
# Revision: 0
# Processed by: cddbd v1.5.1PL0 Copyright (c) Steve Scherf et al.
# Submitted via: ExactAudioCopy v0.95b2
#
DISCID=e90f7e11
DTITLE=Лель Катя - Я Люблю Тебя
DYEAR=2005
DGENRE=Pop
TTITLE0=Я Люблю Тебя
TTITLE1=Кручу-Верчу
TTITLE2=Две Капельки (Remix)
TTITLE3=Белым Мелом
TTITLE4=Падаем Вниз
TTITLE5=Стоять Бояться
TTITLE6=Мой Мармеладный (Я Не Права)
TTITLE7=Прости Меня
TTITLE8=Муси-Пуси
TTITLE9=Долетай
TTITLE10=Я Звезда Твоя
TTITLE11=Небо На Двоих
TTITLE12=Две Капельки
TTITLE13=Не Звони
TTITLE14=Отпусти
TTITLE15=Я Не Верю Тебе
TTITLE16=Такси, Такси (& Николаев Игорь)
EXTD=
EXTT0=
EXTT1=
EXTT2=
EXTT3=
EXTT4=
EXTT5=
EXTT6=
EXTT7=
EXTT8=
EXTT9=
EXTT10=
EXTT11=
EXTT12=
EXTT13=
EXTT14=
EXTT15=
EXTT16=
PLAYORDER=
